# xmcd
#
# Track frame offsets:
#	150
#	10910
#	19865
#	33210
#	44910
#	56525
#	66950
#	75475
#	87020
#	97710
#	115730
#	128685
#
# Disc length: 1888 seconds
#
# Revision: 1
# Processed by: cddbd v1.5.1PL0 Copyright (c) Steve Scherf et al.
# Submitted via: audiograbber 1.82.02
#
DISCID=8a075e0c
DTITLE=Rick and Thel Carey - Songs Of The Carter Family
DYEAR=1900
DGENRE=Country
TTITLE0=When The Roses Bloom In Dixieland
TTITLE1=Jimmy Brown The Newsboy
TTITLE2=Longing For Old Virginia
TTITLE3=Wildwood Flower
TTITLE4=My Clinch Mountain Home
TTITLE5=Worried Man Blues
TTITLE6=Solid Gold
TTITLE7=Dixie Darling
TTITLE8=A Faded Coat Of Blue
TTITLE9=I'll Be All Smiles Tonight
TTITLE10=My Home Across The Blue Ridge Mountains
TTITLE11=Keep In The Sunny Side
EXTD=
EXTT0=
EXTT1=
EXTT2=
EXTT3=
EXTT4=
EXTT5=
EXTT6=
EXTT7=
EXTT8=
EXTT9=
EXTT10=
EXTT11=
PLAYORDER=
